<svg xmlns="http://www.w3.org/2000/svg" xmlns:xlink="http://www.w3.org/1999/xlink" width="120" height="120.001" viewBox="0 0 120 120.001">
  <defs>
    <linearGradient id="linear-gradient" x1="0.5" x2="0.5" y2="1" gradientUnits="objectBoundingBox">
      <stop offset="0" stop-color="#92fe9d"/>
      <stop offset="1" stop-color="#00c9ff"/>
    </linearGradient>
  </defs>
  <path id="Subtraction_8" data-name="Subtraction 8" d="M-4200,296h-67v-.4a59.887,59.887,0,0,1-37.689-19.559,59.791,59.791,0,0,1-11.226-18.231A59.737,59.737,0,0,1-4320,236a59.633,59.633,0,0,1,4.715-23.355,60.069,60.069,0,0,1,5.532-10.192,60.418,60.418,0,0,1,7.327-8.88,60.413,60.413,0,0,1,8.879-7.327,60.033,60.033,0,0,1,10.192-5.532A59.626,59.626,0,0,1-4260,176a59.723,59.723,0,0,1,21.8,4.085,59.786,59.786,0,0,1,18.23,11.225A59.885,59.885,0,0,1-4200.4,229h.4v67Zm-28.848-74.327a14.7,14.7,0,0,0-5.624,1.033,12.26,12.26,0,0,0-4.394,3.1,13.981,13.981,0,0,0-2.813,4.834,18.916,18.916,0,0,0-.937,6.123,18.487,18.487,0,0,0,.967,6.153,13.6,13.6,0,0,0,2.9,4.8,12.553,12.553,0,0,0,4.5,3.076,15.456,15.456,0,0,0,5.757,1.025,17.3,17.3,0,0,0,4.131-.469,12.378,12.378,0,0,0,3.543-1.479,14.581,14.581,0,0,0,3.077-2.578,22.271,22.271,0,0,0,2.724-3.765l-5.566-3.105a16.727,16.727,0,0,1-3.6,4.336,6.774,6.774,0,0,1-4.072,1.172,7,7,0,0,1-5.186-2.05,8.7,8.7,0,0,1-2.285-5.6h20.45l.029-1.553a20.2,20.2,0,0,0-.908-6.291,13.024,13.024,0,0,0-2.725-4.753,11.758,11.758,0,0,0-4.321-3.01A15.05,15.05,0,0,0-4228.848,221.674Zm-26.777,0a16.329,16.329,0,0,0-6.049,1.1,15.258,15.258,0,0,0-5.024,3.3,14.816,14.816,0,0,0-3.384,4.893,15.167,15.167,0,0,0-1.128,5.889,15.179,15.179,0,0,0,1.113,5.867,14.433,14.433,0,0,0,3.34,4.826,14.985,14.985,0,0,0,5,3.209,16.808,16.808,0,0,0,6.079,1.069,17.391,17.391,0,0,0,8.027-2.081v-8.7a16.685,16.685,0,0,1-4.131,3.866,8.408,8.408,0,0,1-4.189,1.026,8.032,8.032,0,0,1-6.124-2.578,9.393,9.393,0,0,1-2.374-6.592,9.188,9.188,0,0,1,2.461-6.533,8.177,8.177,0,0,1,6.182-2.607,7.916,7.916,0,0,1,4.131,1.055,16.16,16.16,0,0,1,4.043,3.779V223.7A16.625,16.625,0,0,0-4255.625,221.674Zm-38.115,0a12.914,12.914,0,0,0-5.288,1.069,12.819,12.819,0,0,0-4.321,3.208,14.518,14.518,0,0,0-2.879,4.812,17.377,17.377,0,0,0-.959,5.881,18.009,18.009,0,0,0,.959,5.991,14.886,14.886,0,0,0,2.878,4.907,12.841,12.841,0,0,0,4.38,3.209,13.409,13.409,0,0,0,5.4,1.069,12.7,12.7,0,0,0,8.76-3.809V251h6.621V222.464h-6.621v3.311A12.186,12.186,0,0,0-4293.74,221.674Zm1.172,24.257a7.223,7.223,0,0,1-5.683-2.607,9.98,9.98,0,0,1-2.2-6.68,9.55,9.55,0,0,1,2.256-6.445,7.317,7.317,0,0,1,5.683-2.578,7.49,7.49,0,0,1,5.859,2.549,9.8,9.8,0,0,1,2.256,6.621,9.8,9.8,0,0,1-2.256,6.621A7.594,7.594,0,0,1-4292.568,245.931Zm70.517-13.037h-13.242a7.748,7.748,0,0,1,.938-2.2,6.685,6.685,0,0,1,1.479-1.656,6.486,6.486,0,0,1,1.919-1.055,6.855,6.855,0,0,1,2.255-.366,6.739,6.739,0,0,1,4.3,1.319,7.191,7.191,0,0,1,2.351,3.954Z" transform="translate(4320 -176)" fill="url(#linear-gradient)"/>
</svg>
